<?xml version="1.0" standalone="no"?>
<!DOCTYPE svg PUBLIC "-//W3C//DTD SVG 20010904//EN"
 "http://www.w3.org/TR/2001/REC-SVG-20010904/DTD/svg10.dtd">
<svg version="1.0" xmlns="http://www.w3.org/2000/svg"
 width="771.000000pt" height="771.000000pt" viewBox="0 0 771.000000 771.000000"
 preserveAspectRatio="xMidYMid meet">
<metadata>
Created by potrace 1.11, written by Peter Selinger 2001-2013
</metadata>
<g transform="translate(0.000000,771.000000) scale(0.100000,-0.100000)"
fill="#000000" stroke="none">
<path d="M3608 7705 c-1 -1 -43 -6 -93 -9 -49 -4 -99 -9 -110 -11 -11 -2 -42
-7 -70 -10 -61 -6 -103 -13 -175 -26 -30 -6 -64 -12 -75 -13 -62 -10 -101 -20
-112 -29 -7 -5 -13 -7 -13 -4 0 8 -209 -49 -345 -95 -435 -146 -846 -373
-1202 -664 -207 -169 -325 -285 -552 -549 -68 -79 -241 -319 -241 -334 0 -5
-7 -14 -16 -22 -8 -7 -24 -29 -35 -48 -11 -20 -31 -54 -44 -76 -14 -22 -32
-56 -42 -75 -9 -19 -25 -46 -35 -59 -10 -13 -18 -30 -18 -37 0 -12 95 -69 102
-62 2 2 17 -6 33 -18 17 -11 75 -43 130 -71 185 -94 210 -108 217 -118 4 -5 8
-7 8 -3 0 4 25 -6 55 -23 l55 -30 10 23 c25 56 190 323 230 371 6 7 27 35 47
62 99 135 300 351 427 460 32 28 69 60 82 73 13 12 26 22 29 22 3 0 20 13 38
30 18 16 35 30 39 30 5 0 16 8 26 18 23 23 191 135 297 197 86 51 335 174 363
180 9 2 42 14 72 28 30 13 87 34 125 46 39 13 77 25 85 28 8 3 20 7 25 8 6 2
35 10 66 19 31 9 65 18 75 21 220 48 255 55 397 70 l48 5 -2 -3142 c-2 -1729
-5 -3149 -7 -3156 -4 -10 -17 -12 -56 -7 -28 4 -62 8 -76 10 -14 2 -61 10
-105 19 -44 9 -92 18 -106 20 -14 3 -61 14 -105 26 -43 11 -88 23 -98 25 -22
5 -113 34 -136 42 -8 4 -18 7 -22 8 -5 2 -10 4 -13 5 -3 1 -8 3 -12 5 -18 5
-49 17 -65 26 -10 5 -22 9 -28 9 -5 0 -35 12 -67 27 -32 14 -61 27 -65 28 -5
2 -10 4 -13 5 -3 1 -8 3 -12 4 -12 3 -161 79 -228 116 -125 69 -283 174 -410
271 -190 146 -466 431 -590 608 -16 24 -38 52 -47 62 -10 10 -18 21 -18 24 0
2 -24 42 -54 87 -76 118 -109 175 -180 323 -89 183 -181 426 -202 534 -3 14
-7 28 -10 33 -3 5 -7 18 -10 31 -10 53 -13 68 -17 75 -3 4 -8 25 -11 46 -4 22
-8 42 -10 44 -2 2 -37 -4 -77 -12 -41 -8 -87 -17 -104 -20 -36 -7 -63 -12
-130 -26 -27 -6 -64 -12 -82 -14 -18 -3 -40 -7 -50 -10 -10 -3 -31 -8 -48 -11
-16 -2 -41 -7 -55 -10 -14 -3 -44 -9 -68 -14 -24 -5 -45 -11 -48 -14 -3 -3 -1
-22 5 -43 5 -22 12 -50 15 -64 15 -68 26 -111 45 -180 12 -41 23 -79 25 -85
68 -242 226 -600 373 -843 12 -21 30 -52 39 -69 10 -18 21 -33 26 -33 4 0 8
-5 8 -11 0 -12 60 -103 72 -107 4 -2 8 -8 8 -13 0 -12 138 -195 211 -280 118
-138 340 -361 436 -439 10 -8 41 -33 68 -56 129 -105 382 -282 479 -335 73
-39 101 -55 116 -64 8 -5 21 -10 29 -12 8 -1 17 -6 20 -10 7 -10 131 -71 145
-71 5 0 12 -4 15 -9 3 -5 26 -17 51 -27 25 -10 59 -24 75 -32 106 -45 278
-107 410 -147 61 -19 297 -77 333 -82 15 -2 65 -11 112 -19 47 -8 105 -17 130
-20 25 -3 54 -8 65 -10 136 -27 747 -27 895 -1 14 2 48 7 75 10 79 10 141 20
200 31 11 2 34 7 50 10 17 2 46 9 65 14 19 5 49 12 67 15 18 3 43 9 57 15 15
5 26 7 26 4 0 -4 7 -1 15 6 8 7 15 10 15 7 0 -3 15 -1 33 4 17 6 37 12 42 13
6 2 17 6 25 9 17 6 93 31 100 32 57 10 424 159 453 183 9 8 17 12 17 7 0 -4 6
-3 13 2 6 6 62 36 122 68 116 61 269 153 321 192 17 13 34 23 37 23 4 0 15 7
25 16 9 8 51 40 92 69 100 72 131 96 157 122 12 12 32 28 43 36 22 15 174 153
219 198 94 95 231 245 281 309 19 25 37 47 40 50 25 23 225 311 275 398 6 9
17 28 26 42 40 61 172 326 223 447 78 187 168 462 201 613 45 210 44 268 -5
362 -42 82 -130 152 -215 171 -47 10 -1862 14 -1872 3 -12 -11 -9 -665 2 -669
6 -2 310 -3 678 -2 367 0 667 1 667 0 0 -1 -42 -113 -47 -125 -8 -19 -8 -19
-17 -52 -5 -16 -13 -28 -19 -28 -6 0 -7 -3 -4 -7 4 -3 0 -17 -8 -30 -9 -13
-13 -23 -11 -23 17 0 -241 -465 -279 -504 -8 -8 -15 -19 -15 -25 0 -6 -3 -11
-7 -11 -5 0 -19 -18 -33 -40 -13 -22 -28 -40 -32 -40 -4 0 -8 -6 -8 -12 0 -7
-16 -30 -35 -50 -19 -20 -35 -40 -35 -44 0 -4 -8 -14 -18 -23 -9 -9 -32 -34
-51 -56 -79 -94 -226 -239 -341 -335 -36 -30 -67 -57 -70 -60 -40 -43 -415
-290 -439 -290 -5 0 -14 -7 -21 -15 -7 -8 -16 -13 -20 -10 -5 3 -11 1 -15 -4
-6 -11 -109 -61 -124 -61 -6 0 -11 -4 -11 -10 0 -5 -6 -10 -13 -10 -7 0 -31
-9 -52 -20 -38 -20 -274 -109 -305 -115 -8 -2 -28 -9 -45 -15 -16 -6 -37 -13
-45 -15 -8 -2 -35 -8 -60 -15 -25 -7 -56 -14 -69 -17 -14 -2 -28 -6 -32 -8 -4
-3 -24 -7 -45 -10 -22 -4 -47 -8 -56 -11 -36 -10 -243 -44 -271 -44 -11 0 -13
415 -11 2433 2 1337 3 2757 3 3154 l1 722 48 -4 c26 -3 63 -8 82 -11 19 -3 45
-7 57 -9 12 -2 36 -6 55 -11 18 -4 42 -8 53 -9 11 -2 38 -8 60 -13 22 -6 51
-13 65 -16 82 -16 277 -79 420 -136 118 -47 314 -140 318 -151 2 -5 8 -9 14
-9 13 0 222 -124 273 -162 6 -4 51 -38 100 -74 234 -173 422 -358 615 -604 28
-36 57 -73 65 -83 8 -9 15 -22 15 -27 0 -6 5 -10 10 -10 6 0 10 -7 10 -15 0
-8 5 -15 10 -15 6 0 10 -7 10 -15 0 -8 3 -15 8 -15 4 0 18 -20 32 -45 14 -25
28 -45 32 -45 5 0 8 -4 8 -9 0 -5 20 -44 45 -85 25 -42 45 -80 45 -84 0 -5 5
-13 11 -19 9 -9 38 2 118 44 58 30 147 77 196 103 50 26 136 71 193 100 57 28
102 55 100 58 -24 51 -68 131 -103 187 -25 39 -50 81 -57 95 -7 14 -15 27 -18
30 -10 10 -70 98 -70 104 0 6 -24 36 -47 61 -7 8 -13 18 -13 23 0 6 -3 12 -7
14 -5 2 -30 32 -57 68 -27 36 -57 72 -65 81 -9 8 -32 35 -51 59 -116 143 -333
354 -516 500 -83 67 -94 76 -179 136 -58 42 -244 164 -249 164 -2 0 -35 19
-72 41 -38 23 -99 57 -137 75 -37 18 -74 38 -82 44 -8 6 -20 13 -27 14 -7 2
-40 15 -73 31 -33 15 -62 29 -65 30 -3 1 -16 6 -30 12 -14 6 -47 20 -75 30
-27 11 -59 24 -70 28 -11 5 -23 9 -27 10 -5 2 -10 4 -13 5 -3 1 -8 3 -12 4 -5
1 -13 4 -19 8 -6 4 -21 9 -35 11 -13 3 -42 12 -64 20 -37 15 -127 42 -171 52
-11 2 -44 11 -74 19 -62 18 -224 52 -285 61 -23 3 -52 8 -65 10 -25 6 -55 9
-160 21 -30 3 -71 8 -90 11 -40 5 -567 13 -572 8z"/>
</g>
</svg>
